<?xml version="1.0" encoding="UTF-8" standalone="no"?>
<svg
   xmlns:dc="http://purl.org/dc/elements/1.1/"
   xmlns:cc="http://creativecommons.org/ns#"
   xmlns:rdf="http://www.w3.org/1999/02/22-rdf-syntax-ns#"
   xmlns:svg="http://www.w3.org/2000/svg"
   xmlns="http://www.w3.org/2000/svg"
   viewBox="0 0 566.25 233.75"
   height="233.75"
   width="566.25"
   xml:space="preserve"
   version="1.1"
   id="svg2"><metadata
     id="metadata8"><rdf:RDF><cc:Work
         rdf:about=""><dc:format>image/svg+xml</dc:format><dc:type
           rdf:resource="http://purl.org/dc/dcmitype/StillImage" /></cc:Work></rdf:RDF></metadata><defs
     id="defs6" /><g
     transform="matrix(1.25,0,0,-1.25,0,233.75)"
     id="g10"><g
       transform="scale(0.1,0.1)"
       id="g12"><path
         id="path14"
         style="fill:#2270c1;fill-opacity:1;fill-rule:evenodd;stroke:none"
         d="m 754.914,380.93 c 55.934,244.328 92.121,481.586 123.625,717.02 20.27,151.45 26.824,297.68 22.434,434.02 -3.426,106.55 -16.407,204.92 -57.258,292.54 81.176,23.12 180.105,-25.33 218.775,-66.03 131.83,-134.69 116.11,-446.9 49.5,-673.97 -83.83,-260.053 -185.299,-469.67 -299.4,-708.826 -19.11,2.843 -39.008,4.492 -57.676,5.246" /><path
         id="path16"
         style="fill:#62c5eb;fill-opacity:1;fill-rule:evenodd;stroke:none"
         d="m 834.516,368.203 c 170.054,197.852 337.104,419.039 442.574,649.787 45.37,113.1 72.11,229.96 73.16,337.88 0.75,75.89 -37.79,168.98 -81.84,227.78 -45.32,62.85 -99.31,119.9 -167.77,150.84 69.11,-101.18 82.59,-211.62 80.49,-343.44 -1.62,-101.9 -21.88,-203.45 -54.46,-326.64 C 1044.33,821.461 939.375,602.113 818.5,374.645 c 4.027,-0.895 14.91,-2.579 16.016,-6.442" /><path
         id="path18"
         style="fill:#ee2722;fill-opacity:1;fill-rule:evenodd;stroke:none"
         d="m 604.594,380.965 c -55.934,244.332 -92.117,481.551 -123.621,716.985 -20.266,151.45 -26.821,297.68 -22.434,434.02 3.426,106.55 16.406,204.92 57.258,292.54 -81.176,23.12 -180.106,-25.33 -218.774,-66.03 C 165.191,1623.79 180.91,1311.58 247.52,1084.51 331.355,824.457 432.793,614.828 546.891,375.672 c 15.664,2.516 36.75,4.066 57.703,5.293" /><path
         id="path20"
         style="fill:#656263;fill-opacity:1;fill-rule:evenodd;stroke:none"
         d="m 679.871,376.691 c -80.73,0 -146.57,-7.117 -146.57,-15.847 0,-8.727 65.84,-15.844 146.57,-15.844 80.727,0 146.567,7.117 146.567,15.844 0,8.73 -65.84,15.847 -146.567,15.847" /><path
         id="path22"
         style="fill:#2270c1;fill-opacity:1;fill-rule:evenodd;stroke:none"
         d="m 698.016,220.98 -36.125,-0.003 -0.164,-204.8012 36.289,0 0,204.8042" /><path
         id="path24"
         style="fill:#2270c1;fill-opacity:1;fill-rule:evenodd;stroke:none"
         d="m 555.781,220.98 57.606,0 0,-19.847 -21.301,0 0,-165.1174 21.301,0 0,-19.8476 -57.606,0 0,204.812" /><path
         id="path26"
         style="fill:#2270c1;fill-opacity:1;fill-rule:evenodd;stroke:none"
         d="m 803.961,220.98 -57.606,0 0,-19.847 21.297,0 0,-165.1174 -21.297,0 0,-19.8476 57.606,0 0,204.812" /><path
         id="path28"
         style="fill:#2270c1;fill-opacity:1;fill-rule:evenodd;stroke:none"
         d="m 1092.73,666.207 c 10.82,-78.5 35.18,-139.152 83.16,-202.137 58.7,-75.996 123.95,-106.507 214.82,-125.304 96.82,-15.618 190.51,-12.844 287.41,0.992 131.56,25.863 203.93,88.808 271.49,203.871 L 1662.2,570.48 c -32.51,-42.515 -58.29,-58.203 -110.38,-70.609 -45.31,-2.152 -69.89,3.152 -108.41,26.852 -41.78,37.992 -51.58,73.304 -59.66,128.293 l 580.78,0 c 0,90.57 -5.04,170.843 -36.8,256.574 -50.01,100.02 -104.93,152.89 -205.86,191.94 -65.6,21.53 -132.55,26.01 -205.85,27.84 -67.31,-2.74 -128.12,-8.7 -190.79,-33.29 -35.88,-126.564 -128.41,-283.322 -232.5,-431.873 z m 577.43,128.035 c -12.84,99.703 -45.67,168.762 -159.12,162.102 -88.59,-11.067 -118.15,-81.731 -127.29,-162.102 l 286.41,0" /><path
         id="path30"
         style="fill:#123e56;fill-opacity:1;fill-rule:evenodd;stroke:none"
         d="m 4109.66,218.031 c 42.42,2.91 73.9,8.477 100.61,42.836 21.55,30.129 21.77,67.145 23.89,108.559 l 0,115.551 C 4169.66,410.66 4104,378.832 4003.09,376.395 c -110.88,3.171 -180.14,43.402 -246.05,134.476 -59.13,92.414 -70.36,192.07 -64.74,296.82 7,101.723 30.89,181.793 106.59,252.009 70.79,64.4 151.83,75.74 243.29,69.73 96.22,-8.36 151.74,-46.41 211.91,-129.492 l 0,113.312 271.91,0 0,-725.902 c 0.67,-81.602 -8.13,-131.559 -46.25,-202.184 C 4443.06,119.344 4371.78,55.9023 4287.96,51.6875 L 4109.66,218.031 Z M 3980.18,740.5 c 3.32,-87.176 27.11,-161.102 127.49,-165.895 89.38,6.516 125.61,73.805 128.01,155.852 -1.41,84.828 -20.79,187.606 -132.7,187.805 -102.07,0.277 -121.96,-95.817 -122.8,-177.762" /><path
         id="path32"
         style="fill:#fbc707;fill-opacity:1;fill-rule:evenodd;stroke:none"
         d="m 746.211,381.398 c 56.699,271.504 97.984,555.438 129.168,852.542 11.34,173.43 21.5,436.44 -52.207,592.81 -35.508,23.86 -96.637,38.59 -143.414,41.43 -46.778,-2.84 -107.91,-17.57 -143.418,-41.43 -73.707,-156.37 -63.539,-419.38 -52.203,-592.81 31.183,-297.104 72.398,-581.006 129.097,-852.51 43.914,1.789 88.028,2.004 132.977,-0.032" /><path
         id="path34"
         style="fill:#2270c1;fill-opacity:1;fill-rule:evenodd;stroke:none"
         d="m 2018.41,559 289.88,25.898 c 20.69,-49.671 35.12,-72.968 87.22,-91.207 31.12,-9.429 95.33,-8.796 140.89,19.485 27.23,18.879 35.47,57.179 5.98,86.664 -25.2,22.191 -95.97,32.137 -141.45,40.844 -117.98,21.906 -274.72,34.64 -328.73,154.402 -51.59,126.008 -10.07,210.524 65.78,266.654 75.06,55.56 183.74,68.67 281.88,70.04 189.4,-2.95 305.31,-23.29 381.52,-206.202 L 2524.45,899.68 c -14.86,42.117 -31.01,56.269 -73.72,70.726 -41.39,10.582 -96.34,5.16 -118.11,-13.109 -21.63,-19.469 -28.96,-39.84 -14.37,-66.582 12.95,-22.914 65.97,-32.215 103,-38.852 74.37,-10.136 146.82,-20.351 219.75,-37.851 165.8,-50.133 235.3,-193.469 147.43,-349.649 C 2674.94,309.59 2459.79,319.016 2289.36,334.867 2147.66,360.297 2056.49,412.078 2018.41,559" /><path
         id="path36"
         style="fill:#2270c1;fill-opacity:1;fill-rule:evenodd;stroke:none"
         d="m 4166.08,1113.29 72.3,0 0,-63.46 c -18.31,31.47 -49.78,52.07 -72.3,63.46" /><path
         id="path38"
         style="fill:#2270c1;fill-opacity:1;fill-rule:evenodd;stroke:none"
         d="m 4215.17,439.789 c -71.6,-83.59 -217.46,-96.156 -316.45,-61.328 -156.4,55.027 -229.38,217.699 -228.43,380.102 0.9,155.292 43.64,286.297 166.19,354.847 l -433.01,0.01 0,-369.9 c -2.67,-65.688 -2.6,-115.899 -50.67,-163.946 -40.24,-28.172 -84.36,-30.16 -127.19,-4.969 -37.15,32.188 -39.28,67.18 -40.73,115.262 l 0,423.293 -292.13,0 0,-488.871 c 4.64,-172.133 67.55,-289.801 256.35,-296.117 135.61,3.031 188.94,42.738 273.26,141.105 l 0,-148.05 788.09,0.125 c 3.7,27.144 1.91,81.718 4.72,118.437" /><path
         id="path40"
         style="fill:#822e94;fill-opacity:1;fill-rule:evenodd;stroke:none"
         d="M 540.977,374.609 C 540.59,374.516 525.465,372.09 525,368.203 354.938,566.055 187.895,787.242 82.4258,1017.99 c -45.3711,113.1 -72.1133,229.96 -73.16799,337.88 -0.74218,75.89 37.79299,168.98 81.84379,227.78 45.3204,62.85 99.3164,119.9 167.7734,150.84 -69.117,-101.18 -82.59,-211.62 -80.488,-343.44 1.621,-101.9 21.883,-203.45 54.461,-326.64 81.558,-240.668 188.601,-464.5 308.129,-689.801" /><path
         id="path42"
         style="fill:#231f20;fill-opacity:1;fill-rule:evenodd;stroke:none"
         d="m 1477.15,1292.92 c 0,-8.28 0,-16.26 0,-23.96 0,-36.23 31.67,-52.53 63.89,-52.53 38.51,0 69.03,18.59 65.32,76.49 -3.99,58.47 -83,58.47 -80.15,92.98 1.43,14.55 9.42,16.26 15.98,16.26 11.69,0 19.1,-7.99 17.96,-30.8 l 46.21,0 c 0,1.14 0,2.85 0,4.55 0,46.22 -31.38,65.32 -65.32,64.75 -38.5,-1.14 -57.33,-19.11 -61.32,-55.33 0,-1.71 0,-3.14 -0.57,-5.42 0.57,-68.17 81.57,-67.6 81.57,-103.25 0,-14.83 -7.41,-22.82 -19.11,-21.68 -9.98,0.57 -18.25,6.28 -18.25,21.11 l 0,16.83 -46.21,0 z m 365.94,-71.31 47.35,0 -4.56,167.71 0.57,0 34.51,-167.71 37.36,0 35.66,167.71 0.56,0 -4.84,-167.71 47.63,0 0,213.92 -70.17,0 -26.52,-126.35 -1.14,0 -25.68,126.35 -70.73,0 0,-213.92 z m 423.84,0 50.77,0 5.99,41.36 39.65,0 6.55,-41.36 50.77,0 -46.2,213.92 -60.75,0 -46.78,-213.92 z m 62.46,79.01 14.27,95.83 14.54,-95.83 -28.81,0 z m 318.59,-79.01 112.1,0 0,42.78 -61.33,0 0,171.71 -50.77,0 0,-214.49 z m 340.27,0 112.1,0 0,42.78 -61.33,0 0,171.71 -50.77,0 0,-214.49 z m 354.25,0 50.2,0 0,171.14 40.79,0 0,42.78 -130.63,0 0,-42.78 39.64,0 0,-171.14 z m 297.49,0 50.77,0 5.99,41.36 39.65,0 6.55,-41.36 50.77,0 -46.2,213.92 -60.75,0 -46.78,-213.92 z m 62.46,79.01 14.26,95.83 14.55,-95.83 -28.81,0 z m 318.59,-79.01 112.09,0 0,42.78 -61.32,0 0,171.71 -50.77,0 0,-214.49 z m 342.55,0 50.2,0 0,53.05 11.13,21.68 27.66,-74.73 53.06,0 -48.5,119.8 45.65,94.69 -51.63,0 -37.37,-85.85 0,85.85 -50.2,0 0,-214.49" /><path
         id="path44"
         style="fill:#231f20;fill-opacity:1;fill-rule:evenodd;stroke:none"
         d="m 1190.31,94.9688 0,-19.9727 -0.58,-9.1328 c -1.13,-14.2617 -7.41,-21.6797 -18.54,-21.1133 -5.99,0 -17.12,1.7148 -17.12,18.5469 l 0,108.1331 c 0,17.695 8.85,19.972 18.26,20.543 l 0.57,0 c 9.99,0 16.26,-8.844 16.26,-27.387 l 0,-13.984 50.79,0 0,17.98 c 0,42.793 -25.68,61.91 -68.76,61.91 -55.06,0.567 -67.33,-32.523 -67.33,-65.906 l 0,-92.4415 c 0,-45.082 19.97,-65.96091 67.33,-65.96091 29.1,0 69.33,14.03121 69.33,57.11331 l 0,31.6719 -50.21,0 z m 215.13,-22.2579 c 1.71,-37.9492 16.27,-66.52731 67.33,-66.52731 51.93,0 67.06,23.44921 69.34,66.52731 l 0,94.1561 c 0,47.36 -32.53,64.192 -67.62,63.625 -35.1,0 -67.9,-13.41 -69.05,-63.625 l 0,-94.1561 z m 50.79,98.7191 c 1.71,15.41 8.84,19.972 17.12,20.543 9.13,0.574 17.4,-4.563 17.97,-20.543 l 0,-97.0042 c 0,-18.5469 -4,-29.6758 -17.4,-29.6758 -12.84,0 -18.26,12.8398 -18.26,27.3945 l 0,94.7225 0.57,4.563 z m 251.94,-160.0589 47.36,0 -4.57,119.2579 0.58,0.574 39.08,-119.8319 51.93,0 0,213.9839 -47.94,0 4.86,-119.832 -1.15,0 -38.23,119.832 -51.92,0 0,-213.9839 z m 303.29,0 50.79,0 0,90.7269 62.2,0 0,43.086 -62.2,0 0,37.945 67.9,0 0,42.801 -118.69,0 0,-214.5589 z m 284.75,0 118.69,0 0,42.793 -68.47,0 0,46.5079 62.77,0 0,42.797 -62.77,0 0,39.66 64.48,0 0,42.801 -114.7,0 0,-214.5589 z m 283.61,0 50.21,0 0,84.168 17.13,0 c 13.97,-1.1407 17.4,-13.9805 17.4,-35.0977 l 0,-23.9687 c 0,-19.3985 1.14,-21.1094 3.42,-25.1016 l 54.5,0 0,2.8477 c -2.85,1.1445 -5.71,9.4179 -6.56,24.5429 l -2.28,50.5 c -1.72,11.6953 -12.28,27.3903 -25.68,27.3903 0.57,0.571 0.57,0.571 0.57,0.571 18.82,8.843 27.39,22.82 26.81,53.07 -1.7,38.227 -21.96,55.062 -60.2,55.062 l -75.32,0 0,-213.9839 z m 50.21,123.2539 0,52.215 c 17.13,0 35.67,-1.145 35.67,-23.395 0,-24.539 -8.27,-28.82 -18.54,-28.82 l -17.13,0 z m 253.09,-123.2539 118.68,0 0,42.793 -68.47,0 0,46.5079 62.77,0 0,42.797 -62.77,0 0,39.66 64.48,0 0,42.801 -114.69,0 0,-214.5589 z m 284.18,0 47.36,0 -4.57,119.2579 0.57,0.574 39.09,-119.8319 51.93,0 0,213.9839 -47.94,0 4.85,-119.832 -1.14,0 -38.23,119.832 -51.92,0 0,-213.9839 z m 386.89,83.5977 0,-19.9727 -0.58,-9.1328 c -1.13,-14.2617 -7.41,-21.6797 -18.54,-21.1133 -5.99,0 -17.12,1.7148 -17.12,18.5469 l 0,108.1331 c 0,17.695 8.85,19.972 18.26,20.543 l 0.57,0 c 9.99,0 16.26,-8.844 16.26,-27.387 l 0,-13.984 50.79,0 0,17.98 c 0,42.793 -25.67,61.91 -68.76,61.91 -55.06,0.567 -67.34,-32.523 -67.34,-65.906 l 0,-92.4415 c 0,-45.082 19.98,-65.96091 67.34,-65.96091 29.1,0 69.33,14.03121 69.33,57.11331 l 0,31.6719 -50.21,0 z m 217.41,-83.5977 118.69,0 0,42.793 -68.47,0 0,46.5079 62.77,0 0,42.797 -62.77,0 0,39.66 64.48,0 0,42.801 -114.7,0 0,-214.5589" /></g></g></svg>