<?xml version="1.0" encoding="UTF-8" standalone="no"?>
<svg
   xmlns:dc="http://purl.org/dc/elements/1.1/"
   xmlns:cc="http://creativecommons.org/ns#"
   xmlns:rdf="http://www.w3.org/1999/02/22-rdf-syntax-ns#"
   xmlns:svg="http://www.w3.org/2000/svg"
   xmlns="http://www.w3.org/2000/svg"
   viewBox="0 0 566.25 232.5"
   height="232.5"
   width="566.25"
   xml:space="preserve"
   version="1.1"
   id="svg2"><metadata
     id="metadata8"><rdf:RDF><cc:Work
         rdf:about=""><dc:format>image/svg+xml</dc:format><dc:type
           rdf:resource="http://purl.org/dc/dcmitype/StillImage" /></cc:Work></rdf:RDF></metadata><defs
     id="defs6" /><g
     transform="matrix(1.25,0,0,-1.25,0,232.5)"
     id="g10"><g
       transform="scale(0.1,0.1)"
       id="g12"><path
         id="path14"
         style="fill:#2270c1;fill-opacity:1;fill-rule:evenodd;stroke:none"
         d="m 754.914,365.5 c 55.934,244.324 92.121,481.582 123.625,717.01 20.27,151.46 26.824,297.69 22.434,434.03 -3.426,106.55 -16.407,204.91 -57.258,292.54 81.176,23.12 180.105,-25.33 218.775,-66.03 131.83,-134.69 116.11,-446.9 49.5,-673.97 -83.83,-260.057 -185.299,-469.67 -299.4,-708.826 -19.11,2.84 -39.008,4.492 -57.676,5.246" /><path
         id="path16"
         style="fill:#62c5eb;fill-opacity:1;fill-rule:evenodd;stroke:none"
         d="m 834.516,352.77 c 170.054,197.855 337.104,419.043 442.574,649.79 45.37,113.09 72.11,229.96 73.16,337.88 0.75,75.89 -37.79,168.98 -81.84,227.77 -45.32,62.86 -99.31,119.9 -167.77,150.85 69.11,-101.18 82.59,-211.62 80.49,-343.44 -1.62,-101.9 -21.88,-203.46 -54.46,-326.64 -82.34,-242.953 -187.295,-462.3 -308.17,-689.765 4.027,-0.895 14.91,-2.578 16.016,-6.445" /><path
         id="path18"
         style="fill:#ee2722;fill-opacity:1;fill-rule:evenodd;stroke:none"
         d="m 604.594,365.535 c -55.934,244.328 -92.117,481.547 -123.621,716.975 -20.266,151.46 -26.821,297.69 -22.434,434.03 3.426,106.55 16.406,204.91 57.258,292.54 -81.176,23.12 -180.106,-25.33 -218.774,-66.03 C 165.191,1608.36 180.91,1296.15 247.52,1069.08 331.355,809.023 432.793,599.398 546.891,360.238 c 15.664,2.516 36.75,4.071 57.703,5.297" /><path
         id="path20"
         style="fill:#822e94;fill-opacity:1;fill-rule:evenodd;stroke:none"
         d="M 540.977,359.176 C 540.59,359.086 525.465,356.66 525,352.77 354.938,550.625 187.895,771.813 82.4258,1002.56 37.0547,1115.65 10.3125,1232.52 9.25781,1340.44 c -0.74218,75.89 37.79299,168.98 81.84379,227.77 45.3204,62.86 99.3164,119.9 167.7734,150.85 -69.117,-101.18 -82.59,-211.62 -80.488,-343.44 1.621,-101.9 21.883,-203.46 54.461,-326.64 81.558,-240.667 188.601,-464.503 308.129,-689.804" /><path
         id="path22"
         style="fill:#656263;fill-opacity:1;fill-rule:evenodd;stroke:none"
         d="m 679.871,361.258 c -80.73,0 -146.57,-7.113 -146.57,-15.844 0,-8.73 65.84,-15.844 146.57,-15.844 80.727,0 146.567,7.114 146.567,15.844 0,8.731 -65.84,15.844 -146.567,15.844" /><path
         id="path24"
         style="fill:#2270c1;fill-opacity:1;fill-rule:evenodd;stroke:none"
         d="m 555.781,205.551 57.606,0 0,-19.848 -21.301,0 0,-165.1171 21.301,0 0,-19.851525 -57.606,0 0,204.816625" /><path
         id="path26"
         style="fill:#2270c1;fill-opacity:1;fill-rule:evenodd;stroke:none"
         d="m 803.961,205.551 -57.606,0 0,-19.848 21.297,0 0,-165.1171 -21.297,0 0,-19.851525 57.606,0 0,204.816625" /><path
         id="path28"
         style="fill:#2270c1;fill-opacity:1;fill-rule:evenodd;stroke:none"
         d="m 1092.73,650.773 c 10.82,-78.5 35.18,-139.148 83.16,-202.132 58.7,-76 123.95,-106.512 214.82,-125.309 96.82,-15.613 190.51,-12.84 287.41,0.992 131.56,25.867 203.93,88.813 271.49,203.875 l -287.41,26.852 c -32.51,-42.52 -58.29,-58.207 -110.38,-70.61 -45.31,-2.156 -69.89,3.149 -108.41,26.848 -41.78,37.996 -51.58,73.309 -59.66,128.293 l 580.78,0 c 0,90.574 -5.04,170.844 -36.8,256.578 -50.01,100.012 -104.93,152.89 -205.86,191.93 -65.6,21.54 -132.55,26.02 -205.85,27.85 -67.31,-2.74 -128.12,-8.7 -190.79,-33.29 -35.88,-126.564 -128.41,-283.326 -232.5,-431.877 z m 577.43,128.036 c -12.84,99.703 -45.67,168.765 -159.12,162.101 -88.59,-11.066 -118.15,-81.726 -127.29,-162.101 l 286.41,0" /><path
         id="path30"
         style="fill:#123e56;fill-opacity:1;fill-rule:evenodd;stroke:none"
         d="m 4109.66,202.602 c 42.42,2.91 73.9,8.476 100.61,42.836 21.55,30.128 21.77,67.144 23.89,108.558 l 0,115.547 C 4169.66,395.23 4104,363.402 4003.09,360.961 c -110.88,3.172 -180.14,43.402 -246.05,134.477 -59.13,92.414 -70.36,192.07 -64.74,296.82 7,101.722 30.89,181.797 106.59,252.012 70.79,64.4 151.83,75.74 243.29,69.73 96.22,-8.36 151.74,-46.42 211.91,-129.492 l 0,113.312 271.91,0 0,-725.902 c 0.67,-81.602 -8.13,-131.563 -46.25,-202.188 C 4443.06,103.91 4371.78,40.4688 4287.96,36.2539 l -178.3,166.3481 z m -129.48,522.464 c 3.32,-87.171 27.11,-161.097 127.49,-165.894 89.38,6.519 125.61,73.805 128.01,155.855 -1.41,84.828 -20.79,187.602 -132.7,187.805 -102.07,0.273 -121.96,-95.816 -122.8,-177.766" /><path
         id="path32"
         style="fill:#fbc707;fill-opacity:1;fill-rule:evenodd;stroke:none"
         d="m 746.211,365.965 c 56.699,271.508 97.984,555.437 129.168,852.545 11.34,173.43 21.5,436.44 -52.207,592.81 -35.508,23.85 -96.637,38.58 -143.414,41.42 -46.778,-2.84 -107.91,-17.57 -143.418,-41.42 -73.707,-156.37 -63.539,-419.38 -52.203,-592.81 31.183,-297.108 72.398,-581.01 129.097,-852.514 43.914,1.793 88.028,2.004 132.977,-0.031" /><path
         id="path34"
         style="fill:#2270c1;fill-opacity:1;fill-rule:evenodd;stroke:none"
         d="m 2018.41,543.566 289.88,25.899 c 20.69,-49.668 35.12,-72.969 87.22,-91.203 31.12,-9.43 95.33,-8.801 140.89,19.48 27.23,18.879 35.47,57.184 5.98,86.668 -25.2,22.192 -95.97,32.133 -141.45,40.84 -117.98,21.906 -274.72,34.641 -328.73,154.402 -51.59,126.008 -10.07,210.532 65.78,266.658 75.06,55.56 183.74,68.66 281.88,70.04 189.4,-2.96 305.31,-23.29 381.52,-206.202 l -276.93,-25.902 c -14.86,42.117 -31.01,56.274 -73.72,70.731 -41.39,10.582 -96.34,5.156 -118.11,-13.11 -21.63,-19.469 -28.96,-39.84 -14.37,-66.586 12.95,-22.914 65.97,-32.211 103,-38.847 74.37,-10.137 146.82,-20.352 219.75,-37.856 165.8,-50.129 235.3,-193.465 147.43,-349.644 -113.49,-154.774 -328.64,-145.352 -499.07,-129.496 -141.7,25.425 -232.87,77.207 -270.95,224.128" /><path
         id="path36"
         style="fill:#231f20;fill-opacity:1;fill-rule:evenodd;stroke:none"
         d="m 934.727,25.3945 86.413,0 0,31.1602 -49.855,0 0,33.8594 45.705,0 0,31.1599 -45.705,0 0,28.879 46.945,0 0,31.156 -83.503,0 0,-156.2145 z m 102.613,155.8005 0,-114.4606 c 0,-31.5781 19.95,-45.7383 51.52,-45.1133 31.58,0.4141 45.91,16.0273 47.16,45.9414 l 0,113.6325 -36.98,0 0,-117.5778 c -0.41,-8.5195 -3.32,-13.918 -11.84,-13.918 -8.52,0 -12.88,4.5703 -13.29,12.2539 l 0,119.2419 -36.57,0 z m 115.71,-155.8005 36.57,0 0,61.2813 12.46,0 c 10.18,-0.8281 12.67,-10.1797 12.67,-25.5508 l 0,-17.4492 c 0,-14.1289 0.83,-15.375 2.49,-18.2813 l 39.68,0 0,2.0743 c -2.08,0.832 -4.15,6.8593 -4.78,17.8671 l -1.66,36.7735 c -1.25,8.5156 -8.93,19.9376 -18.69,19.9376 0.41,0.418 0.41,0.418 0.41,0.418 13.71,6.437 19.94,16.617 19.53,38.637 -1.25,27.836 -16,40.093 -43.84,40.093 l -54.84,0 0,-155.8005 z m 36.57,89.7425 0,38.015 c 12.46,0 25.96,-0.832 25.96,-17.031 0,-17.867 -6.02,-20.984 -13.5,-20.984 l -12.46,0 z m 78.72,-45.0784 c 1.25,-27.6289 11.85,-48.4375 49.03,-48.4375 37.81,0 48.82,17.0703 50.48,48.4375 l 0,68.5504 c 0,34.485 -23.68,46.739 -49.23,46.325 -25.55,0 -49.44,-9.766 -50.28,-46.325 l 0,-68.5504 z m 36.98,71.8754 c 1.25,11.218 6.44,14.543 12.47,14.957 6.64,0.414 12.67,-3.325 13.09,-14.957 l 0,-70.6293 c 0,-13.5039 -2.92,-21.6055 -12.68,-21.6055 -9.35,0 -13.29,9.3477 -13.29,19.9414 l 0,68.9684 0.41,3.325 z m 81.64,-116.5395 36.56,0 0,60.4532 c 29.92,-0.418 60.66,0 61.91,47.5703 0.82,46.949 -34.48,47.777 -53.8,47.777 l -44.67,0 0,-155.8005 z m 36.56,88.4965 0,39.261 3.95,0 c 1.24,0 3.32,0 5.19,-0.418 7.48,0 16,-0.828 16,-17.035 -0.42,-12.879 -0.42,-22.64 -23.68,-21.808 l -1.46,0 z m 77.91,-88.4965 86.41,0 0,31.1602 -49.86,0 0,33.8594 45.71,0 0,31.1599 -45.71,0 0,28.879 46.95,0 0,31.156 -83.5,0 0,-156.2145 z m 95.76,0 36.97,0 4.36,30.1211 28.88,0 4.78,-30.1211 36.98,0 -33.66,155.8005 -44.25,0 -34.06,-155.8005 z m 45.49,57.543 10.39,69.7965 10.59,-69.7965 -20.98,0 z m 77.48,-57.543 34.49,0 -3.32,86.8325 0.41,0.418 28.46,-87.2505 37.81,0 0,155.8005 -34.9,0 3.53,-87.2458 -0.83,0 -27.84,87.2458 -37.81,0 0,-155.8005 z m 162.04,51.9336 c 0,-6.0234 0,-11.8398 0,-17.4492 0,-26.3828 23.06,-38.2578 46.53,-38.2578 28.05,0 50.27,13.5352 47.57,55.707 -2.91,42.5859 -60.45,42.5859 -58.37,67.7229 1.04,10.594 6.86,11.84 11.63,11.84 8.52,0 13.92,-5.817 13.09,-22.434 l 33.65,0 c 0,0.828 0,2.078 0,3.32 0,33.653 -22.85,47.571 -47.57,47.157 -28.04,-0.829 -41.75,-13.918 -44.66,-40.301 0,-1.246 0,-2.281 -0.42,-3.945 0.42,-49.6489 59.42,-49.2349 59.42,-75.1997 0,-10.8008 -5.41,-16.6211 -13.92,-15.7891 -7.27,0.418 -13.3,4.5703 -13.3,15.3711 l 0,12.2578 -33.65,0 z m 110.72,-51.9336 34.48,0 -3.32,122.1485 0.42,0 25.13,-122.1485 27.22,0 25.96,122.1485 0.42,0 -3.53,-122.1485 34.69,0 0,155.8005 -51.1,0 -19.33,-92.027 -0.83,0 -18.69,92.027 -51.52,0 0,-155.8005 z m 152.89,0 36.98,0 4.36,30.1211 28.88,0 4.77,-30.1211 36.98,0 -33.65,155.8005 -44.25,0 -34.07,-155.8005 z m 45.5,57.543 10.39,69.7965 10.59,-69.7965 -20.98,0 z m 76.24,-57.543 81.64,0 0,31.1602 -44.67,0 0,125.0543 -36.97,0 0,-156.2145 z m 92.02,0 81.64,0 0,31.1602 -44.66,0 0,125.0543 -36.98,0 0,-156.2145 z m 102.21,0 36.56,0 0,124.6445 29.71,0 0,31.156 -95.14,0 0,-31.156 28.87,0 0,-124.6445 z m 60.86,0 36.98,0 4.36,30.1211 28.88,0 4.78,-30.1211 36.97,0 -33.65,155.8005 -44.25,0 -34.07,-155.8005 z m 45.5,57.543 10.38,69.7965 10.6,-69.7965 -20.98,0 z m 76.24,-57.543 81.64,0 0,31.1602 -44.67,0 0,125.0543 -36.97,0 0,-156.2145 z m 93.68,0 36.57,0 0,38.6407 8.1,15.7851 20.15,-54.4258 38.64,0 -35.32,87.2505 33.24,68.964 -37.6,0 -27.21,-62.527 0,62.527 -36.57,0 0,-156.2145 z m 166.82,155.8005 0,-114.4606 c 0,-31.5781 19.94,-45.7383 51.52,-45.1133 31.57,0.4141 45.91,16.0273 47.15,45.9414 l 0,113.6325 -36.98,0 0,-117.5778 c -0.41,-8.5195 -3.32,-13.918 -11.84,-13.918 -8.51,0 -12.87,4.5703 -13.29,12.2539 l 0,119.2419 -36.56,0 z M 3015.39,77.3281 c 0,-6.0234 0,-11.8398 0,-17.4492 0,-26.3828 23.06,-38.2578 46.54,-38.2578 28.04,0 50.27,13.5352 47.57,55.707 -2.91,42.5859 -60.46,42.5859 -58.38,67.7229 1.04,10.594 6.86,11.84 11.63,11.84 8.52,0 13.92,-5.817 13.09,-22.434 l 33.66,0 c 0,0.828 0,2.078 0,3.32 0,33.653 -22.86,47.571 -47.57,47.157 -28.05,-0.829 -41.76,-13.918 -44.67,-40.301 0,-1.246 0,-2.281 -0.42,-3.945 0.42,-49.6489 59.42,-49.2349 59.42,-75.1997 0,-10.8008 -5.4,-16.6211 -13.92,-15.7891 -7.27,0.418 -13.3,4.5703 -13.3,15.3711 l 0,12.2578 -33.65,0 z m 110.31,-51.9336 86.42,0 0,31.1602 -49.86,0 0,33.8594 45.7,0 0,31.1599 -45.7,0 0,28.879 46.94,0 0,31.156 -83.5,0 0,-156.2145 z m 102.62,0 36.56,0 0,61.2813 12.46,0 c 10.18,-0.8281 12.68,-10.1797 12.68,-25.5508 l 0,-17.4492 c 0,-14.1289 0.82,-15.375 2.49,-18.2813 l 39.67,0 0,2.0743 c -2.07,0.832 -4.15,6.8593 -4.77,17.8671 l -1.66,36.7735 c -1.25,8.5156 -8.94,19.9376 -18.7,19.9376 0.41,0.418 0.41,0.418 0.41,0.418 13.71,6.437 19.95,16.617 19.53,38.637 -1.24,27.836 -16,40.093 -43.83,40.093 l -54.84,0 0,-155.8005 z m 36.56,89.7425 0,38.015 c 12.46,0 25.96,-0.832 25.96,-17.031 0,-17.867 -6.02,-20.984 -13.5,-20.984 l -12.46,0 z M 3467,38.6914 l 2.08,-13.7461 24.72,0 0,84.7887 -49.64,0 0,-28.0426 13.08,0 0,-12.4648 c 0,-13.5039 -2.08,-19.9453 -14.12,-19.9453 -6.24,0.4179 -12.68,4.5742 -12.68,13.5078 l 0,79.1449 0.83,4.777 c 1.25,6.023 3.95,9.766 12.47,10.18 6.23,0 11.84,-1.661 12.67,-14.957 l 0,-13.918 36.56,0 0,13.5 c -1.24,31.164 -18.7,43.832 -49.85,43.418 -39.47,-0.414 -49.24,-23.266 -49.24,-47.989 l 0.42,-68.9645 c 0,-31.5782 17.03,-44.6953 33.65,-46.3594 2.49,0 4.99,0 7.06,0 15.38,0 25.97,5.8477 31.58,17.0703 l 0.41,0 z m 44.67,-13.2969 36.56,0 0,61.2813 12.46,0 c 10.18,-0.8281 12.68,-10.1797 12.68,-25.5508 l 0,-17.4492 c 0,-14.1289 0.83,-15.375 2.49,-18.2813 l 39.68,0 0,2.0743 c -2.08,0.832 -4.16,6.8593 -4.79,17.8671 l -1.65,36.7735 c -1.25,8.5156 -8.94,19.9376 -18.7,19.9376 0.41,0.418 0.41,0.418 0.41,0.418 13.71,6.437 19.94,16.617 19.53,38.637 -1.24,27.836 -16,40.093 -43.83,40.093 l -54.84,0 0,-155.8005 z m 36.56,89.7425 0,38.015 c 12.46,0 25.97,-0.832 25.97,-17.031 0,-17.867 -6.03,-20.984 -13.51,-20.984 l -12.46,0 z m 78.73,-45.0784 c 1.24,-27.6289 11.84,-48.4375 49.02,-48.4375 37.81,0 48.82,17.0703 50.48,48.4375 l 0,68.5504 c 0,34.485 -23.68,46.739 -49.23,46.325 -25.55,0 -49.44,-9.766 -50.27,-46.325 l 0,-68.5504 z m 36.98,71.8754 c 1.24,11.218 6.44,14.543 12.46,14.957 6.65,0.414 12.67,-3.325 13.09,-14.957 l 0,-70.6293 c 0,-13.5039 -2.91,-21.6055 -12.68,-21.6055 -9.34,0 -13.29,9.3477 -13.29,19.9414 l 0,68.9684 0.42,3.325 z m 79.14,39.261 0,-114.4606 c 0,-31.5781 19.95,-45.7383 51.52,-45.1133 31.57,0.4141 45.91,16.0273 47.16,45.9414 l 0,113.6325 -36.98,0 0,-117.5778 c -0.42,-8.5195 -3.32,-13.918 -11.84,-13.918 -8.52,0 -12.88,4.5703 -13.3,12.2539 l 0,119.2419 -36.56,0 z m 118.2,-155.8005 36.56,0 0,60.4532 c 29.92,-0.418 60.66,0 61.91,47.5703 0.83,46.949 -34.48,47.777 -53.8,47.777 l -44.67,0 0,-155.8005 z m 36.56,88.4965 0,39.261 3.95,0 c 1.25,0 3.32,0 5.19,-0.418 7.48,0 16,-0.828 16,-17.035 -0.41,-12.879 -0.41,-22.64 -23.68,-21.808 l -1.46,0" /><path
         id="path38"
         style="fill:#2270c1;fill-opacity:1;fill-rule:evenodd;stroke:none"
         d="m 4166.08,1097.86 72.3,0 0,-63.47 c -18.31,31.47 -49.78,52.08 -72.3,63.47" /><path
         id="path40"
         style="fill:#2270c1;fill-opacity:1;fill-rule:evenodd;stroke:none"
         d="m 4215.17,424.359 c -71.6,-83.589 -217.46,-96.156 -316.45,-61.332 -156.4,55.028 -229.38,217.703 -228.43,380.106 0.9,155.293 43.64,286.297 166.19,354.847 l -433.01,0.01 0,-369.9 c -2.67,-65.692 -2.6,-115.899 -50.67,-163.945 -40.24,-28.172 -84.36,-30.161 -127.19,-4.973 -37.15,32.187 -39.28,67.183 -40.73,115.262 l 0,423.296 -292.13,0 0,-488.875 c 4.64,-172.128 67.55,-289.796 256.35,-296.113 135.61,3.028 188.94,42.738 273.26,141.102 l 0,-148.051 788.09,0.129 c 3.7,27.141 1.91,81.719 4.72,118.437" /><path
         id="path42"
         style="fill:#2270c1;fill-opacity:1;fill-rule:evenodd;stroke:none"
         d="m 698.016,205.547 -36.125,-0.004 -0.164,-204.800812 36.289,0 0,204.804812" /></g></g></svg>