<?xml version="1.0" encoding="UTF-8" standalone="no"?>
<svg
   xmlns:dc="http://purl.org/dc/elements/1.1/"
   xmlns:cc="http://creativecommons.org/ns#"
   xmlns:rdf="http://www.w3.org/1999/02/22-rdf-syntax-ns#"
   xmlns:svg="http://www.w3.org/2000/svg"
   xmlns="http://www.w3.org/2000/svg"
   viewBox="0 0 566.25 233.75"
   height="233.75"
   width="566.25"
   xml:space="preserve"
   version="1.1"
   id="svg2"><metadata
     id="metadata8"><rdf:RDF><cc:Work
         rdf:about=""><dc:format>image/svg+xml</dc:format><dc:type
           rdf:resource="http://purl.org/dc/dcmitype/StillImage" /></cc:Work></rdf:RDF></metadata><defs
     id="defs6" /><g
     transform="matrix(1.25,0,0,-1.25,0,233.75)"
     id="g10"><g
       transform="scale(0.1,0.1)"
       id="g12"><path
         id="path14"
         style="fill:#2270c1;fill-opacity:1;fill-rule:evenodd;stroke:none"
         d="m 754.914,373.215 c 55.934,244.328 92.121,481.586 123.625,717.015 20.27,151.46 26.824,297.69 22.434,434.03 -3.426,106.54 -16.407,204.91 -57.258,292.53 81.176,23.12 180.105,-25.33 218.775,-66.02 131.83,-134.7 116.11,-446.9 49.5,-673.98 -83.83,-260.048 -185.299,-469.661 -299.4,-708.821 -19.11,2.84 -39.008,4.492 -57.676,5.246" /><path
         id="path16"
         style="fill:#62c5eb;fill-opacity:1;fill-rule:evenodd;stroke:none"
         d="m 834.516,360.484 c 170.054,197.856 337.104,419.043 442.574,649.786 45.37,113.1 72.11,229.96 73.16,337.89 0.75,75.88 -37.79,168.97 -81.84,227.77 -45.32,62.86 -99.31,119.9 -167.77,150.85 69.11,-101.19 82.59,-211.62 80.49,-343.44 -1.62,-101.9 -21.88,-203.46 -54.46,-326.65 C 1044.33,813.746 939.375,594.398 818.5,366.93 c 4.027,-0.895 14.91,-2.578 16.016,-6.446" /><path
         id="path18"
         style="fill:#ee2722;fill-opacity:1;fill-rule:evenodd;stroke:none"
         d="m 604.594,373.254 c -55.934,244.324 -92.117,481.547 -123.621,716.976 -20.266,151.46 -26.821,297.69 -22.434,434.03 3.426,106.54 16.406,204.91 57.258,292.53 -81.176,23.12 -180.106,-25.33 -218.774,-66.02 -131.832,-134.7 -116.113,-446.9 -49.503,-673.98 83.835,-260.048 185.273,-469.673 299.371,-708.837 15.664,2.52 36.75,4.07 57.703,5.301" /><path
         id="path20"
         style="fill:#822e94;fill-opacity:1;fill-rule:evenodd;stroke:none"
         d="M 540.977,366.895 C 540.59,366.801 525.465,364.379 525,360.484 354.938,558.34 187.895,779.527 82.4258,1010.27 c -45.3711,113.1 -72.1133,229.96 -73.16799,337.89 -0.74218,75.88 37.79299,168.97 81.84379,227.77 45.3204,62.86 99.3164,119.9 167.7734,150.85 -69.117,-101.19 -82.59,-211.62 -80.488,-343.44 1.621,-101.9 21.883,-203.46 54.461,-326.65 81.558,-240.659 188.601,-464.495 308.129,-689.795" /><path
         id="path22"
         style="fill:#656263;fill-opacity:1;fill-rule:evenodd;stroke:none"
         d="m 679.871,368.977 c -80.73,0 -146.57,-7.118 -146.57,-15.848 0,-8.727 65.84,-15.844 146.57,-15.844 80.727,0 146.567,7.117 146.567,15.844 0,8.73 -65.84,15.848 -146.567,15.848" /><path
         id="path24"
         style="fill:#2270c1;fill-opacity:1;fill-rule:evenodd;stroke:none"
         d="m 555.781,213.27 57.606,0 0,-19.852 -21.301,0 0,-165.1172 21.301,0 0,-19.85158 -57.606,0 0,204.82078" /><path
         id="path26"
         style="fill:#2270c1;fill-opacity:1;fill-rule:evenodd;stroke:none"
         d="m 803.961,213.27 -57.606,0 0,-19.852 21.297,0 0,-165.1172 -21.297,0 0,-19.85158 57.606,0 0,204.82078" /><path
         id="path28"
         style="fill:#231f20;fill-opacity:1;fill-rule:evenodd;stroke:none"
         d="m 2920.39,62.8633 30.16,0 8.68,51.6097 0.36,0 7.98,-51.6097 30.15,0 18.98,99.4957 -26.96,0 -7.62,-64.5582 -0.36,0 -10.11,64.5582 -24.12,0 -10.46,-64.5582 -0.36,0 -7.98,64.5582 -27.31,0 18.97,-99.4957 z m 118.47,0 30.16,0 8.69,51.6097 0.35,0 7.98,-51.6097 30.15,0 18.98,99.4957 -26.96,0 -7.63,-64.5582 -0.35,0 -10.1,64.5582 -24.13,0 -10.46,-64.5582 -0.36,0 -7.98,64.5582 -27.31,0 18.97,-99.4957 z m 118.48,0 30.15,0 8.69,51.6097 0.36,0 7.97,-51.6097 30.15,0 18.98,99.4957 -26.96,0 -7.63,-64.5582 -0.35,0 -10.11,64.5582 -24.12,0 -10.46,-64.5582 -0.35,0 -7.99,64.5582 -27.31,0 18.98,-99.4957 z m 106.05,0 29.8,0 0,30.1523 -29.8,0 0,-30.1523 z m 79.28,45.0467 47.53,0 0,28.731 c 0,19.687 -16.31,28.375 -36.71,28.375 -25.36,0 -39.19,-9.93 -39.19,-33.52 l 0,-42.7382 c 0.71,-20.3984 15.96,-29.1172 38.84,-29.1172 24.82,0 37.42,14.0391 36,37.4532 l -28.02,0 c 0,-10.9961 -0.71,-17.2032 -9.4,-17.2032 -5.5,0.3516 -8.69,3.7227 -9.05,8.8672 l 0,19.1522 z m 0,18.625 c 0,1.063 0,2.129 -0.35,3.192 0.35,9.043 1.06,16.668 10.11,16.668 5.5,0 9.75,-3.192 9.75,-14.54 0,-1.777 0,-3.55 0,-5.32 l -19.51,0 z m 55.51,-33.5194 c -0.35,-20.3984 10.29,-33.0195 34.24,-33.7304 0.35,0 1.06,0 1.77,0 28.73,0 40.08,15.9921 38.48,35.1445 -3.19,31.7463 -45.04,27.3123 -46.46,42.9223 -0.71,6.207 3.72,9.043 9.4,9.043 5.85,0 9.22,-3.547 9.22,-13.477 l 26.43,0 c 1.77,21.816 -15.26,31.746 -35.65,32.098 -21.46,0 -37.78,-10.993 -37.07,-32.098 1.07,-20.574 20.75,-27.492 39.02,-35.8242 6.74,-2.6641 7.27,-5.1446 7.98,-8.8711 0.71,-6.918 -4.79,-9.3985 -10.29,-10.1094 -5.32,0.3555 -10.46,3.3711 -10.11,14.9023 l -26.96,0 z m 130.18,-18.0937 0,-12.0899 26.25,0 0,99.527 -28.38,0 0,-71.8277 c 0,-4.7891 -3.36,-7.9805 -7.98,-7.9805 -4.07,-0.3555 -6.56,1.7734 -6.91,7.9805 l 0,71.8277 -28.38,0 0,-83.1832 c 0,-11.5235 8.34,-19.1797 22.88,-19.8906 10.29,0 17.56,5.707 22.17,15.6367 l 0,0 c 0.35,0 0.35,0 0.35,0 z m 70.59,55.8671 c 0,5.5 2.48,10.996 7.27,10.996 5.32,0 9.41,-3.015 9.41,-10.996 l 0,-30.8593 c 0,-7.625 -2.84,-11.707 -8.34,-11.707 -6.21,0 -8.34,4.082 -8.34,11.707 l 0,30.8593 z m 17.03,-54.4452 0,-19.0079 c 0,-4.9687 -0.35,-9.7578 -9.4,-9.7578 -6.92,0 -8.34,2.4844 -8.69,7.2774 0.35,0.707 0.35,1.7695 0.35,2.4804 l -28.38,0 c 0.36,-21.4609 13.13,-28.7304 38.49,-28.0234 16.67,0.1758 35.65,6.207 35.65,31.0391 l 0,102.0074 -26.25,0 0,-12.238 c -5.68,10.109 -14.19,14.895 -22.88,14.895 -12.59,0 -24.3,-10.993 -24.3,-30.856 l 0,-40.0819 c 0,-8.6914 4.44,-29.0859 24.66,-28.7343 8.33,0.3593 14.19,3.7265 20.75,11 z m 50.9,-13.4805 29.79,0 0,30.1523 -29.79,0 0,-30.1523 z m 51.61,25.0078 c 0,-14.8984 10.82,-28.5859 37.07,-28.5859 23.94,0 36.71,12.2656 36.71,29.4726 l 0.35,46.4652 c 0,14.898 -11.17,29.793 -36.71,29.793 -26.25,0 -37.42,-13.832 -37.42,-30.504 l 0,-46.6409 z m 28.38,46.6409 c 0,6.207 3.19,10.113 9.04,10.113 4.43,0 8.34,-3.551 8.34,-10.113 l 0,-45.7542 c 0,-7.4531 -5.15,-8.8672 -8.69,-8.8672 -4.08,0 -8.69,1.4141 -8.69,8.8672 l 0,45.7542 z m 60.3,-71.6487 28.38,0 0,61.3667 c -0.36,8.333 4.96,9.575 11.52,9.575 4.44,0 8.52,-0.887 8.52,-0.887 l 0,32.098 c -4.44,0 -16.85,-1.418 -21.82,-17.911 l -0.35,0 0,15.254 -26.25,0 0,-99.4957 z m 86.9,67.9257 c 0,5.5 2.48,10.996 7.27,10.996 5.32,0 9.41,-3.015 9.41,-10.996 l 0,-30.8593 c 0,-7.625 -2.84,-11.707 -8.34,-11.707 -6.21,0 -8.34,4.082 -8.34,11.707 l 0,30.8593 z m 17.03,-54.4452 0,-19.0079 c 0,-4.9687 -0.35,-9.7578 -9.4,-9.7578 -6.91,0 -8.34,2.4844 -8.69,7.2774 0.35,0.707 0.35,1.7695 0.35,2.4804 l -28.38,0 c 0.36,-21.4609 13.13,-28.7304 38.49,-28.0234 16.67,0.1758 35.65,6.207 35.65,31.0391 l 0,102.0074 -26.25,0 0,-12.238 c -5.67,10.109 -14.19,14.895 -22.88,14.895 -12.59,0 -24.29,-10.993 -24.29,-30.856 l 0,-40.0819 c 0,-8.6914 4.43,-29.0859 24.65,-28.7343 8.33,0.3593 14.19,3.7265 20.75,11" /><path
         id="path30"
         style="fill:#2270c1;fill-opacity:1;fill-rule:evenodd;stroke:none"
         d="m 1092.73,658.492 c 10.82,-78.5 35.18,-139.152 83.16,-202.137 58.7,-75.996 123.95,-106.507 214.82,-125.304 96.82,-15.617 190.51,-12.84 287.41,0.992 131.56,25.867 203.93,88.809 271.49,203.871 l -287.41,26.852 c -32.51,-42.516 -58.29,-58.207 -110.38,-70.61 -45.31,-2.152 -69.89,3.153 -108.41,26.852 -41.78,37.992 -51.58,73.305 -59.66,128.289 l 580.78,0 c 0,90.578 -5.04,170.844 -36.8,256.578 -50.01,100.015 -104.93,152.885 -205.86,191.935 -65.6,21.53 -132.55,26.01 -205.85,27.85 -67.31,-2.75 -128.12,-8.71 -190.79,-33.3 -35.88,-126.555 -128.41,-283.317 -232.5,-431.868 z m 577.43,128.035 c -12.84,99.703 -45.67,168.762 -159.12,162.098 -88.59,-11.066 -118.15,-81.723 -127.29,-162.098 l 286.41,0" /><path
         id="path32"
         style="fill:#123e56;fill-opacity:1;fill-rule:evenodd;stroke:none"
         d="m 4109.66,210.316 c 42.42,2.911 73.9,8.481 100.61,42.836 21.55,30.133 21.77,67.145 23.89,108.559 l 0,115.551 C 4169.66,402.945 4104,371.117 4003.09,368.676 c -110.88,3.172 -180.14,43.406 -246.05,134.48 -59.13,92.41 -70.36,192.071 -64.74,296.817 7,101.722 30.89,181.8 106.59,252.007 70.79,64.4 151.83,75.75 243.29,69.74 96.22,-8.37 151.74,-46.42 211.91,-129.497 l 0,113.317 271.91,0 0,-725.907 c 0.67,-81.602 -8.13,-131.563 -46.25,-202.188 -36.69,-65.82 -107.97,-129.2614 -191.79,-133.4723 l -178.3,166.3433 z m -129.48,522.469 c 3.32,-87.176 27.11,-161.097 127.49,-165.894 89.38,6.515 125.61,73.8 128.01,155.855 -1.41,84.824 -20.79,187.602 -132.7,187.801 -102.07,0.277 -121.96,-95.817 -122.8,-177.762" /><path
         id="path34"
         style="fill:#fbc707;fill-opacity:1;fill-rule:evenodd;stroke:none"
         d="m 746.211,373.684 c 56.699,271.504 97.984,555.437 129.168,852.546 11.34,173.42 21.5,436.43 -52.207,592.8 -35.508,23.86 -96.637,38.59 -143.414,41.43 -46.778,-2.84 -107.91,-17.57 -143.418,-41.43 -73.707,-156.37 -63.539,-419.38 -52.203,-592.8 31.183,-297.109 72.398,-581.011 129.097,-852.519 43.914,1.797 88.028,2.008 132.977,-0.027" /><path
         id="path36"
         style="fill:#2270c1;fill-opacity:1;fill-rule:evenodd;stroke:none"
         d="m 2018.41,551.281 289.88,25.903 c 20.69,-49.668 35.12,-72.969 87.22,-91.207 31.12,-9.43 95.33,-8.801 140.89,19.484 27.23,18.875 35.47,57.18 5.98,86.664 -25.2,22.191 -95.97,32.137 -141.45,40.844 -117.98,21.906 -274.72,34.64 -328.73,154.398 -51.59,126.012 -10.07,210.535 65.78,266.663 75.06,55.56 183.74,68.66 281.88,70.04 189.4,-2.96 305.31,-23.29 381.52,-206.207 l -276.93,-25.898 c -14.86,42.117 -31.01,56.269 -73.72,70.726 -41.39,10.586 -96.34,5.161 -118.11,-13.105 -21.63,-19.469 -28.96,-39.844 -14.37,-66.586 12.95,-22.918 65.97,-32.215 103,-38.852 74.37,-10.136 146.82,-20.347 219.75,-37.851 165.8,-50.133 235.3,-193.469 147.43,-349.645 -113.49,-154.777 -328.64,-145.355 -499.07,-129.5 -141.7,25.426 -232.87,77.207 -270.95,224.129" /><path
         id="path38"
         style="fill:#231f20;fill-opacity:1;fill-rule:evenodd;stroke:none"
         d="m 1481.86,1233.93 86.42,0 0,31.16 -49.86,0 0,33.86 45.71,0 0,31.16 -45.71,0 0,28.88 46.95,0 0,31.16 -83.51,0 0,-156.22 z m 102.62,155.8 0,-114.46 c 0,-31.57 19.95,-45.73 51.52,-45.11 31.58,0.41 45.91,16.03 47.16,45.94 l 0,113.63 -36.98,0 0,-117.57 c -0.41,-8.52 -3.32,-13.92 -11.84,-13.92 -8.52,0 -12.88,4.57 -13.29,12.25 l 0,119.24 -36.57,0 z m 115.71,-155.8 36.56,0 0,61.28 12.46,0 c 10.18,-0.82 12.68,-10.17 12.68,-25.55 l 0,-17.45 c 0,-14.12 0.83,-15.37 2.49,-18.28 l 39.68,0 0,2.08 c -2.08,0.83 -4.16,6.86 -4.78,17.87 l -1.66,36.76 c -1.25,8.52 -8.94,19.95 -18.69,19.95 0.41,0.41 0.41,0.41 0.41,0.41 13.71,6.44 19.94,16.62 19.52,38.64 -1.24,27.84 -15.99,40.09 -43.83,40.09 l -54.84,0 0,-155.8 z m 36.56,89.75 0,38.01 c 12.46,0 25.97,-0.83 25.97,-17.03 0,-17.87 -6.02,-20.98 -13.51,-20.98 l -12.46,0 z m 78.73,-45.08 c 1.25,-27.64 11.84,-48.44 49.03,-48.44 37.81,0 48.82,17.07 50.48,48.44 l 0,68.55 c 0,34.48 -23.68,46.74 -49.24,46.32 -25.55,0 -49.44,-9.76 -50.27,-46.32 l 0,-68.55 z m 36.98,71.87 c 1.25,11.22 6.44,14.54 12.46,14.96 6.65,0.41 12.67,-3.32 13.09,-14.96 l 0,-70.63 c 0,-13.5 -2.91,-21.6 -12.67,-21.6 -9.35,0 -13.3,9.35 -13.3,19.94 l 0,68.97 0.42,3.32 z m 81.64,-116.54 36.56,0 0,60.46 c 29.91,-0.42 60.66,0 61.91,47.57 0.82,46.94 -34.49,47.77 -53.81,47.77 l -44.66,0 0,-155.8 z m 36.56,88.5 0,39.26 3.95,0 c 1.24,0 3.32,0 5.19,-0.42 7.48,0 16,-0.82 16,-17.03 -0.42,-12.88 -0.42,-22.64 -23.69,-21.81 l -1.45,0 z m 77.9,-88.5 86.42,0 0,31.16 -49.86,0 0,33.86 45.7,0 0,31.16 -45.7,0 0,28.88 46.95,0 0,31.16 -83.51,0 0,-156.22 z m 95.76,0 36.98,0 4.36,30.12 28.88,0 4.78,-30.12 36.97,0 -33.65,155.8 -44.25,0 -34.07,-155.8 z m 45.5,57.54 10.38,69.8 10.6,-69.8 -20.98,0 z m 77.48,-57.54 34.49,0 -3.33,86.84 0.42,0.41 28.46,-87.25 37.8,0 0,155.8 -34.89,0 3.53,-87.25 -0.83,0 -27.84,87.25 -37.81,0 0,-155.8 z m 162.04,51.94 c 0,-6.03 0,-11.84 0,-17.45 0,-26.38 23.06,-38.26 46.53,-38.26 28.04,0 50.27,13.54 47.57,55.71 -2.91,42.58 -60.45,42.58 -58.37,67.72 1.04,10.59 6.85,11.84 11.63,11.84 8.51,0 13.92,-5.82 13.09,-22.44 l 33.65,0 c 0,0.83 0,2.08 0,3.33 0,33.65 -22.85,47.57 -47.57,47.15 -28.05,-0.83 -41.76,-13.92 -44.67,-40.3 0,-1.24 0,-2.28 -0.41,-3.95 0.41,-49.64 59.41,-49.23 59.41,-75.19 0,-10.81 -5.4,-16.62 -13.91,-15.79 -7.28,0.42 -13.3,4.57 -13.3,15.37 l 0,12.26 -33.65,0 z m 110.72,-51.94 34.48,0 -3.32,122.15 0.41,0 25.14,-122.15 27.21,0 25.97,122.15 0.41,0 -3.53,-122.15 34.69,0 0,155.8 -51.1,0 -19.32,-92.02 -0.83,0 -18.7,92.02 -51.51,0 0,-155.8 z m 152.89,0 36.98,0 4.36,30.12 28.87,0 4.78,-30.12 36.98,0 -33.65,155.8 -44.25,0 -34.07,-155.8 z m 45.5,57.54 10.38,69.8 10.6,-69.8 -20.98,0 z m 76.23,-57.54 81.64,0 0,31.16 -44.66,0 0,125.06 -36.98,0 0,-156.22 z m 92.03,0 81.64,0 0,31.16 -44.66,0 0,125.06 -36.98,0 0,-156.22 z m 102.21,0 36.56,0 0,124.64 29.7,0 0,31.16 -95.14,0 0,-31.16 28.88,0 0,-124.64 z m 60.86,0 36.98,0 4.36,30.12 28.87,0 4.78,-30.12 36.98,0 -33.65,155.8 -44.25,0 -34.07,-155.8 z m 45.5,57.54 10.38,69.8 10.59,-69.8 -20.97,0 z m 76.23,-57.54 81.64,0 0,31.16 -44.66,0 0,125.06 -36.98,0 0,-156.22 z m 93.69,0 36.57,0 0,38.64 8.1,15.79 20.15,-54.43 38.64,0 -35.32,87.25 33.24,68.97 -37.6,0 -27.21,-62.53 0,62.53 -36.57,0 0,-156.22 z m 166.82,155.8 0,-114.46 c 0,-31.57 19.94,-45.73 51.52,-45.11 31.57,0.41 45.91,16.03 47.15,45.94 l 0,113.63 -36.98,0 0,-117.57 c -0.42,-8.52 -3.32,-13.92 -11.84,-13.92 -8.51,0 -12.88,4.57 -13.3,12.25 l 0,119.24 -36.55,0 z m 110.51,-103.86 c 0,-6.03 0,-11.84 0,-17.45 0,-26.38 23.06,-38.26 46.53,-38.26 28.05,0 50.28,13.54 47.57,55.71 -2.9,42.58 -60.45,42.58 -58.37,67.72 1.04,10.59 6.85,11.84 11.63,11.84 8.52,0 13.92,-5.82 13.09,-22.44 l 33.65,0 c 0,0.83 0,2.08 0,3.33 0,33.65 -22.85,47.57 -47.57,47.15 -28.04,-0.83 -41.75,-13.92 -44.66,-40.3 0,-1.24 0,-2.28 -0.42,-3.95 0.42,-49.64 59.41,-49.23 59.41,-75.19 0,-10.81 -5.39,-16.62 -13.91,-15.79 -7.27,0.42 -13.3,4.57 -13.3,15.37 l 0,12.26 -33.65,0 z m 110.31,-51.94 86.41,0 0,31.16 -49.86,0 0,33.86 45.71,0 0,31.16 -45.71,0 0,28.88 46.95,0 0,31.16 -83.5,0 0,-156.22 z m 102.61,0 36.57,0 0,61.28 12.46,0 c 10.18,-0.82 12.67,-10.17 12.67,-25.55 l 0,-17.45 c 0,-14.12 0.83,-15.37 2.49,-18.28 l 39.68,0 0,2.08 c -2.08,0.83 -4.15,6.86 -4.78,17.87 l -1.66,36.76 c -1.24,8.52 -8.93,19.95 -18.69,19.95 0.41,0.41 0.41,0.41 0.41,0.41 13.71,6.44 19.94,16.62 19.53,38.64 -1.25,27.84 -16,40.09 -43.83,40.09 l -54.85,0 0,-155.8 z m 36.57,89.75 0,38.01 c 12.46,0 25.96,-0.83 25.96,-17.03 0,-17.87 -6.02,-20.98 -13.5,-20.98 l -12.46,0 z m 202.12,-76.45 2.08,-13.75 24.72,0 0,84.79 -49.65,0 0,-28.04 13.09,0 0,-12.46 c 0,-13.51 -2.08,-19.95 -14.13,-19.95 -6.23,0.42 -12.67,4.57 -12.67,13.5 l 0,79.15 0.83,4.78 c 1.25,6.02 3.95,9.76 12.47,10.18 6.23,0 11.83,-1.66 12.67,-14.96 l 0,-13.92 36.56,0 0,13.5 c -1.25,31.16 -18.7,43.84 -49.86,43.42 -39.46,-0.41 -49.23,-23.26 -49.23,-47.99 l 0.41,-68.96 c 0,-31.58 17.04,-44.7 33.66,-46.36 2.49,0 4.98,0 7.06,0 15.37,0 25.97,5.85 31.58,17.07 l 0.41,0 z m 44.66,-13.3 36.57,0 0,61.28 12.46,0 c 10.18,-0.82 12.67,-10.17 12.67,-25.55 l 0,-17.45 c 0,-14.12 0.83,-15.37 2.5,-18.28 l 39.67,0 0,2.08 c -2.08,0.83 -4.15,6.86 -4.78,17.87 l -1.66,36.76 c -1.24,8.52 -8.93,19.95 -18.69,19.95 0.41,0.41 0.41,0.41 0.41,0.41 13.71,6.44 19.94,16.62 19.53,38.64 -1.25,27.84 -16,40.09 -43.83,40.09 l -54.85,0 0,-155.8 z m 36.57,89.75 0,38.01 c 12.46,0 25.96,-0.83 25.96,-17.03 0,-17.87 -6.02,-20.98 -13.5,-20.98 l -12.46,0 z m 78.72,-45.08 c 1.25,-27.64 11.85,-48.44 49.03,-48.44 37.81,0 48.82,17.07 50.48,48.44 l 0,68.55 c 0,34.48 -23.68,46.74 -49.23,46.32 -25.55,0 -49.44,-9.76 -50.28,-46.32 l 0,-68.55 z m 36.98,71.87 c 1.25,11.22 6.45,14.54 12.47,14.96 6.64,0.41 12.67,-3.32 13.09,-14.96 l 0,-70.63 c 0,-13.5 -2.92,-21.6 -12.68,-21.6 -9.34,0 -13.29,9.35 -13.29,19.94 l 0,68.97 0.41,3.32 z m 79.15,39.26 0,-114.46 c 0,-31.57 19.94,-45.73 51.52,-45.11 31.57,0.41 45.91,16.03 47.15,45.94 l 0,113.63 -36.97,0 0,-117.57 c -0.42,-8.52 -3.33,-13.92 -11.84,-13.92 -8.52,0 -12.88,4.57 -13.3,12.25 l 0,119.24 -36.56,0 z m 118.2,-155.8 36.56,0 0,60.46 c 29.92,-0.42 60.66,0 61.91,47.57 0.82,46.94 -34.49,47.77 -53.81,47.77 l -44.66,0 0,-155.8 z m 36.56,88.5 0,39.26 3.95,0 c 1.24,0 3.32,0 5.19,-0.42 7.48,0 16,-0.82 16,-17.03 -0.42,-12.88 -0.42,-22.64 -23.69,-21.81 l -1.45,0" /><path
         id="path40"
         style="fill:#2270c1;fill-opacity:1;fill-rule:evenodd;stroke:none"
         d="m 4166.08,1105.57 72.3,0 0,-63.46 c -18.31,31.47 -49.78,52.08 -72.3,63.46" /><path
         id="path42"
         style="fill:#2270c1;fill-opacity:1;fill-rule:evenodd;stroke:none"
         d="m 4215.17,432.074 c -71.6,-83.59 -217.46,-96.152 -316.45,-61.332 -156.4,55.031 -229.38,217.707 -228.43,380.11 0.9,155.293 43.64,286.288 166.19,354.848 l -433.01,0.01 0,-369.905 c -2.67,-65.688 -2.6,-115.899 -50.67,-163.946 -40.24,-28.171 -84.36,-30.156 -127.19,-4.968 -37.15,32.187 -39.28,67.179 -40.73,115.257 l 0,423.302 -292.13,0 0,-488.876 c 4.64,-172.133 67.55,-289.797 256.35,-296.117 135.61,3.031 188.94,42.742 273.26,141.102 l 0,-148.051 788.09,0.129 c 3.7,27.14 1.91,81.718 4.72,118.437" /><path
         id="path44"
         style="fill:#2270c1;fill-opacity:1;fill-rule:evenodd;stroke:none"
         d="m 555.781,213.27 57.606,0 0,-19.852 -21.301,0 0,-165.1172 21.301,0 0,-19.85158 -57.606,0 0,204.82078" /><path
         id="path46"
         style="fill:#2270c1;fill-opacity:1;fill-rule:evenodd;stroke:none"
         d="m 803.961,213.27 -57.606,0 0,-19.852 21.297,0 0,-165.1172 -21.297,0 0,-19.85158 57.606,0 0,204.82078" /><path
         id="path48"
         style="fill:#2270c1;fill-opacity:1;fill-rule:evenodd;stroke:none"
         d="m 698.016,213.262 -36.125,-0.004 -0.164,-204.79706 36.289,0 0,204.80106" /></g></g></svg>